<svg width="73" height="72" viewBox="0 0 73 72" fill="none" xmlns="http://www.w3.org/2000/svg">

<rect x="0.5" width="72" height="72" rx="36" fill="#F8FBFF"/>
<path fill-rule="evenodd" clip-rule="evenodd" d="M46.6954 25.0606C45.583 22.0344 42.3562 20.4679 39.4048 21.5343L25.5777 26.5303C23.2535 27.3701 21.6998 29.6463 21.6998 32.198V44.7995C21.6998 48.1085 24.2802 50.8 27.4742 50.8H45.5255C48.7195 50.8 51.2998 48.1085 51.2998 44.7995V36.1943C51.2998 32.8853 48.7195 30.1937 45.5255 30.1937H32.7733C30.3346 30.1937 28.3665 32.2485 28.3665 34.7719C28.3665 37.2954 30.3346 39.3501 32.7733 39.3501H42.4998C43.3147 39.3501 43.9665 38.6645 43.9665 37.83C43.9665 36.9954 43.3147 36.3098 42.4998 36.3098H32.7733C31.9644 36.3098 31.2998 35.6263 31.2998 34.7719C31.2998 33.9176 31.9644 33.234 32.7733 33.234H45.5255C47.0896 33.234 48.3665 34.5544 48.3665 36.1943V44.7995C48.3665 46.4394 47.0896 47.7598 45.5255 47.7598H27.4742C25.91 47.7598 24.6332 46.4394 24.6332 44.7995V32.198C24.6332 30.9342 25.4024 29.8134 26.5434 29.4011L40.3705 24.4051C41.816 23.8828 43.4044 24.6472 43.9543 26.1431L44.4626 27.5258C44.7502 28.308 45.5976 28.7064 46.3586 28.4038C47.1169 28.1022 47.4904 27.2232 47.2037 26.4433L46.6954 25.0606Z" fill="#0075FF"/>
</svg>
